2.8Hzhigh3min_grf.mot
version=1
nRows=27
nColumns 19
inDegrees=yes
endheader
time	1_ground_force_vx	1_ground_force_vy	1_ground_force_vz	1_ground_force_px	1_ground_force_py	1_ground_force_pz	1_ground_torque_x	1_ground_torque_y	1_ground_torque_z	2_ground_force_vx	2_ground_force_vy	2_ground_force_vz	2_ground_force_px	2_ground_force_py	2_ground_force_pz	2_ground_torque_x	2_ground_torque_y	2_ground_torque_z
            1.237500	           -0.503147	           -1.804130	            0.314513	           -0.233013	            0.005581	           -0.255695	           -0.050294	           -0.101585	           -0.096941	           -0.697514	           -1.475055	           -0.192670	           -0.232311	            0.006130	           -0.833667	           -0.169478	            0.112822	            0.000477
            1.238000	           -0.593578	           -3.067777	            0.722033	           -0.233013	            0.005581	           -0.255695	           -0.010922	           -0.055147	           -0.157099	           -0.228994	           -1.473530	           -0.145941	           -0.232311	            0.006130	           -0.833667	           -0.131462	           -0.019111	           -0.075412
            1.238500	           -0.774804	           -2.350682	            1.642699	           -0.233013	            0.005581	           -0.255695	           -0.125685	           -0.092033	           -0.202413	            0.048200	           -0.368295	            0.045594	           -0.232311	            0.006130	           -0.833667	           -0.168393	           -0.198781	           -0.094887
            1.239000	           -0.408096	           -0.908879	            1.739684	           -0.233013	            0.005581	           -0.255695	           -0.074266	           -0.063959	           -0.224429	            0.144496	           -1.104048	           -0.097858	           -0.232311	            0.006130	           -0.833667	           -0.130661	           -0.236658	           -0.038488
            1.239500	            0.095236	           -1.988410	            1.275235	           -0.233013	            0.005581	           -0.255695	           -0.035148	           -0.054574	           -0.184148	            0.048597	           -0.550267	           -0.565128	           -0.232311	            0.006130	           -0.833667	           -0.092972	           -0.265015	           -0.000904
            1.240000	            0.414295	           -0.002869	            0.686815	           -0.233013	            0.005581	           -0.255695	           -0.161011	           -0.026983	           -0.113710	           -0.415976	           -1.656347	           -0.709656	           -0.232311	            0.006130	           -0.833667	           -0.206348	           -0.085686	           -0.037916
            1.240500	            0.229721	           -0.901874	            0.133134	           -0.233013	            0.005581	           -0.255695	           -0.099527	           -0.082374	           -0.159483	           -0.934607	           -0.737801	           -0.612295	           -0.232311	            0.006130	           -0.833667	           -0.131523	            0.008911	            0.018940
            1.241000	           -0.274696	           -1.982976	           -0.007820	           -0.233013	            0.005581	           -0.255695	           -0.149343	           -0.045647	           -0.180666	           -0.888401	           -0.553651	           -0.564730	           -0.232311	            0.006130	           -0.833667	           -0.188143	            0.075078	           -0.037351
            1.241500	           -0.319304	           -1.264281	            0.545657	           -0.233013	            0.005581	           -0.255695	           -0.098171	           -0.128829	           -0.183130	           -0.275262	           -1.657178	           -0.334291	           -0.232311	            0.006130	           -0.833667	           -0.112201	           -0.133014	            0.074977
            1.242000	           -0.959317	           -1.087285	            1.281717	           -0.233013	            0.005581	           -0.255695	           -0.167240	           -0.073571	           -0.228892	           -0.089006	           -1.289711	            0.089297	           -0.232311	            0.006130	           -0.833667	           -0.130653	           -0.236725	           -0.019637
            1.242500	           -1.050042	           -1.990007	            1.599071	           -0.233013	            0.005581	           -0.255695	           -0.067491	           -0.073985	           -0.139028	            0.519939	           -1.286675	           -0.145603	           -0.232311	            0.006130	           -0.833667	           -0.055415	           -0.283112	           -0.189490
            1.243000	            0.004200	           -1.809341	            1.551371	           -0.233013	            0.005581	           -0.255695	           -0.065875	           -0.026721	           -0.225464	            0.329073	           -0.365439	           -0.470735	           -0.232311	            0.006130	           -0.833667	           -0.130821	           -0.207829	           -0.170338
            1.243500	            0.231836	           -1.265944	            0.956995	           -0.233013	            0.005581	           -0.255695	           -0.078364	           -0.063532	           -0.234635	           -0.138138	           -0.735092	           -0.565706	           -0.232311	            0.006130	           -0.833667	           -0.112803	            0.000333	           -0.207304
            1.244000	            0.322303	           -1.444029	            0.451579	           -0.233013	            0.005581	           -0.255695	           -0.056596	           -0.036015	           -0.174261	           -0.372552	           -0.734599	           -0.941031	           -0.232311	            0.006130	           -0.833667	           -0.188158	            0.066028	           -0.150486
            1.244500	            0.367154	           -1.622517	            0.037989	           -0.233013	            0.005581	           -0.255695	           -0.076130	           -0.101200	           -0.059742	           -0.564501	            0.552926	           -0.701711	           -0.232311	            0.006130	           -0.833667	           -0.244327	            0.018427	           -0.112930
            1.245000	           -0.320020	           -1.082836	            0.271294	           -0.233013	            0.005581	           -0.255695	           -0.067745	           -0.082697	           -0.164216	           -0.606555	           -0.737453	           -0.377794	           -0.232311	            0.006130	           -0.833667	           -0.300180	           -0.123500	           -0.132262
            1.245500	           -1.005092	           -2.709292	            1.183162	           -0.233013	            0.005581	           -0.255695	           -0.086978	           -0.027766	           -0.136801	           -0.186673	           -0.185327	            0.140207	           -0.232311	            0.006130	           -0.833667	           -0.224690	           -0.208639	           -0.038347
            1.246000	           -0.820908	           -2.170032	            1.551873	           -0.233013	            0.005581	           -0.255695	           -0.121859	           -0.036677	           -0.185348	            0.473192	           -1.287681	            0.089058	           -0.232311	            0.006130	           -0.833667	           -0.186991	           -0.246247	           -0.057348
            1.246500	           -0.820521	           -0.548821	            1.833966	           -0.233013	            0.005581	           -0.255695	           -0.040640	            0.000081	           -0.129055	            0.238176	           -1.103542	           -0.144826	           -0.232311	            0.006130	           -0.833667	           -0.149737	           -0.151786	           -0.000476
            1.247000	           -0.042347	            0.174162	            1.422420	           -0.233013	            0.005581	           -0.255695	           -0.136424	           -0.026679	           -0.246112	            0.096817	           -0.918730	           -0.472606	           -0.232311	            0.006130	           -0.833667	           -0.225278	           -0.047876	           -0.056623
            1.247500	            0.368796	           -1.264935	            0.727374	           -0.233013	            0.005581	           -0.255695	           -0.162154	           -0.063976	           -0.115776	           -0.325538	           -0.735769	           -0.565626	           -0.232311	            0.006130	           -0.833667	           -0.244363	            0.037063	           -0.037462
            1.248000	            0.597345	           -1.984577	            0.402722	           -0.233013	            0.005581	           -0.255695	           -0.091470	           -0.101165	           -0.031119	           -0.558437	           -1.105079	           -0.519912	           -0.232311	            0.006130	           -0.833667	           -0.206681	            0.008774	           -0.018729
            1.248500	            0.000815	           -0.722242	            0.272044	           -0.233013	            0.005581	           -0.255695	           -0.030163	           -0.092188	           -0.056689	           -0.700357	           -0.736955	           -0.612395	           -0.232311	            0.006130	           -0.833667	           -0.262543	           -0.123902	            0.018524
            1.249000	           -0.639573	           -0.364391	            0.871309	           -0.233013	            0.005581	           -0.255695	           -0.112293	           -0.083073	           -0.121421	           -0.184159	           -0.920749	           -0.190918	           -0.232311	            0.006130	           -0.833667	           -0.262234	           -0.227344	           -0.132649
            1.249500	           -0.730004	           -1.628038	            1.278829	           -0.233013	            0.005581	           -0.255695	           -0.035137	           -0.074004	           -0.087842	            0.141714	           -0.366450	           -0.376799	           -0.232311	            0.006130	           -0.833667	           -0.187195	           -0.198714	           -0.132580
            1.250000	           -1.004556	           -2.530009	            1.413215	           -0.233013	            0.005581	           -0.255695	           -0.097059	           -0.018194	           -0.211934	            0.096214	           -0.735083	           -0.331165	           -0.232311	            0.006130	           -0.833667	           -0.112113	           -0.179605	           -0.113694
            1.250500	           -0.362855	           -0.727622	            1.511063	           -0.233013	            0.005581	           -0.255695	           -0.083146	           -0.027378	           -0.128312	           -0.091226	           -0.735425	           -0.424941	           -0.232311	            0.006130	           -0.833667	           -0.244251	           -0.000546	           -0.094147
